<svg xmlns="http://www.w3.org/2000/svg" xmlns:xlink="http://www.w3.org/1999/xlink" zoomAndPan="magnify" viewBox="268 642 1016 332" preserveAspectRatio="xMidYMid meet" version="1.0"><defs><g/><clipPath id="0ee6628366"><rect x="0" width="495" y="0" height="286"/></clipPath><clipPath id="37f71d8d36"><path d="M 758.84375 652.914062 L 1275.328125 652.914062 L 1275.328125 867.347656 L 758.84375 867.347656 Z M 758.84375 652.914062 " clip-rule="nonzero"/></clipPath><clipPath id="cf3f00f2f8"><path d="M 0.84375 0.914062 L 517.328125 0.914062 L 517.328125 215.347656 L 0.84375 215.347656 Z M 0.84375 0.914062 " clip-rule="nonzero"/></clipPath><clipPath id="5db3d22266"><rect x="0" width="518" y="0" height="216"/></clipPath></defs><g transform="matrix(1, 0, 0, 1, 265, 607)"><g clip-path="url(#0ee6628366)"><g fill="#ffffff" fill-opacity="1"><g transform="translate(0.213516, 237.099929)"><g><path d="M 13.609375 -3.6875 L 13.609375 -178.21875 C 13.609375 -180.675781 14.835938 -181.90625 17.296875 -181.90625 L 27.40625 -181.90625 C 29.863281 -181.90625 31.09375 -180.675781 31.09375 -178.21875 L 31.09375 -173.9375 C 31.09375 -171.476562 32.320312 -170.25 34.78125 -170.25 L 39.0625 -170.25 C 41.519531 -170.25 42.75 -169.015625 42.75 -166.546875 L 42.75 -162.28125 C 42.75 -159.8125 43.984375 -158.578125 46.453125 -158.578125 L 50.71875 -158.578125 C 53.1875 -158.578125 54.421875 -157.347656 54.421875 -154.890625 L 54.421875 -150.609375 C 54.421875 -148.148438 55.648438 -146.921875 58.109375 -146.921875 L 62.390625 -146.921875 C 64.847656 -146.921875 66.078125 -145.691406 66.078125 -143.234375 L 66.078125 -138.953125 C 66.078125 -136.492188 67.304688 -135.265625 69.765625 -135.265625 L 74.046875 -135.265625 C 76.503906 -135.265625 77.734375 -134.035156 77.734375 -131.578125 L 77.734375 -127.296875 C 77.734375 -124.835938 78.96875 -123.609375 81.4375 -123.609375 L 85.703125 -123.609375 C 88.160156 -123.609375 89.390625 -122.375 89.390625 -119.90625 L 89.390625 -115.640625 C 89.390625 -113.171875 90.625 -111.9375 93.09375 -111.9375 L 97.359375 -111.9375 C 99.828125 -111.9375 101.0625 -113.171875 101.0625 -115.640625 L 101.0625 -119.90625 C 101.0625 -122.375 102.289062 -123.609375 104.75 -123.609375 L 109.03125 -123.609375 C 111.488281 -123.609375 112.71875 -124.835938 112.71875 -127.296875 L 112.71875 -131.578125 C 112.71875 -134.035156 113.945312 -135.265625 116.40625 -135.265625 L 120.6875 -135.265625 C 123.144531 -135.265625 124.375 -136.492188 124.375 -138.953125 L 124.375 -143.234375 C 124.375 -145.691406 125.609375 -146.921875 128.078125 -146.921875 L 132.34375 -146.921875 C 134.8125 -146.921875 136.046875 -148.148438 136.046875 -150.609375 L 136.046875 -154.890625 C 136.046875 -157.347656 137.273438 -158.578125 139.734375 -158.578125 L 144.015625 -158.578125 C 146.472656 -158.578125 147.703125 -159.8125 147.703125 -162.28125 L 147.703125 -166.546875 C 147.703125 -169.015625 148.929688 -170.25 151.390625 -170.25 L 155.859375 -170.25 C 158.328125 -170.25 159.5625 -171.476562 159.5625 -173.9375 L 159.5625 -178.21875 C 159.5625 -180.675781 160.789062 -181.90625 163.25 -181.90625 L 173.15625 -181.90625 C 175.625 -181.90625 176.859375 -180.675781 176.859375 -178.21875 L 176.859375 -3.6875 C 176.859375 -1.226562 175.625 0 173.15625 0 L 128.078125 0 C 125.609375 0 124.375 -1.226562 124.375 -3.6875 L 124.375 -108.25 C 124.375 -110.707031 123.144531 -111.9375 120.6875 -111.9375 L 116.40625 -111.9375 C 113.945312 -111.9375 112.71875 -110.707031 112.71875 -108.25 L 112.71875 -103.96875 C 112.71875 -101.507812 111.488281 -100.28125 109.03125 -100.28125 L 104.75 -100.28125 C 102.289062 -100.28125 101.0625 -99.050781 101.0625 -96.59375 L 101.0625 -92.3125 C 101.0625 -89.851562 99.828125 -88.625 97.359375 -88.625 L 93.09375 -88.625 C 90.625 -88.625 89.390625 -89.851562 89.390625 -92.3125 L 89.390625 -96.59375 C 89.390625 -99.050781 88.160156 -100.28125 85.703125 -100.28125 L 81.4375 -100.28125 C 78.96875 -100.28125 77.734375 -101.507812 77.734375 -103.96875 L 77.734375 -108.25 C 77.734375 -110.707031 76.503906 -111.9375 74.046875 -111.9375 L 69.765625 -111.9375 C 67.304688 -111.9375 66.078125 -110.707031 66.078125 -108.25 L 66.078125 -3.6875 C 66.078125 -1.226562 64.847656 0 62.390625 0 L 17.296875 0 C 14.835938 0 13.609375 -1.226562 13.609375 -3.6875 Z M 13.609375 -3.6875 "/></g></g></g><g fill="#ffffff" fill-opacity="1"><g transform="translate(190.666551, 237.099929)"><g><path d="M 81.8125 -62 L 65.875 -62 C 63.414062 -62 62.1875 -60.765625 62.1875 -58.296875 L 62.1875 -15.359375 C 62.1875 -12.890625 63.414062 -11.65625 65.875 -11.65625 L 70.15625 -11.65625 C 72.613281 -11.65625 73.84375 -12.890625 73.84375 -15.359375 L 73.84375 -19.625 C 73.84375 -22.09375 75.078125 -23.328125 77.546875 -23.328125 L 81.8125 -23.328125 C 84.28125 -23.328125 85.515625 -24.554688 85.515625 -27.015625 L 85.515625 -58.296875 C 85.515625 -60.765625 84.28125 -62 81.8125 -62 Z M 21.375 -3.6875 L 21.375 -7.96875 C 21.375 -10.425781 20.144531 -11.65625 17.6875 -11.65625 L 13.40625 -11.65625 C 10.945312 -11.65625 9.71875 -12.890625 9.71875 -15.359375 L 9.71875 -58.296875 C 9.71875 -60.765625 10.945312 -62 13.40625 -62 L 17.6875 -62 C 20.144531 -62 21.375 -63.226562 21.375 -65.6875 L 21.375 -69.96875 C 21.375 -72.425781 22.609375 -73.65625 25.078125 -73.65625 L 70.15625 -73.65625 C 72.613281 -73.65625 73.84375 -74.882812 73.84375 -77.34375 L 73.84375 -81.625 C 73.84375 -84.082031 75.078125 -85.3125 77.546875 -85.3125 L 87.65625 -85.3125 C 90.113281 -85.3125 91.34375 -86.546875 91.34375 -89.015625 L 91.34375 -120.6875 C 91.34375 -123.144531 90.113281 -124.375 87.65625 -124.375 L 77.546875 -124.375 C 75.078125 -124.375 73.84375 -123.144531 73.84375 -120.6875 L 73.84375 -104.75 C 73.84375 -102.289062 72.613281 -101.0625 70.15625 -101.0625 L 65.875 -101.0625 C 63.414062 -101.0625 62.1875 -99.828125 62.1875 -97.359375 L 62.1875 -87.265625 C 62.1875 -84.796875 60.957031 -83.5625 58.5 -83.5625 L 19.234375 -83.5625 C 16.773438 -83.5625 15.546875 -84.796875 15.546875 -87.265625 L 15.546875 -120.6875 C 15.546875 -123.144531 16.773438 -124.375 19.234375 -124.375 L 26.4375 -124.375 C 28.894531 -124.375 30.125 -125.609375 30.125 -128.078125 L 30.125 -132.34375 C 30.125 -134.8125 31.351562 -136.046875 33.8125 -136.046875 L 122.625 -136.046875 C 125.09375 -136.046875 126.328125 -134.8125 126.328125 -132.34375 L 126.328125 -128.078125 C 126.328125 -125.609375 127.554688 -124.375 130.015625 -124.375 L 134.296875 -124.375 C 136.753906 -124.375 137.984375 -123.144531 137.984375 -120.6875 L 137.984375 -3.6875 C 137.984375 -1.226562 136.753906 0 134.296875 0 L 100.859375 0 C 98.398438 0 97.171875 -1.226562 97.171875 -3.6875 L 97.171875 -7.96875 C 97.171875 -10.425781 95.941406 -11.65625 93.484375 -11.65625 L 89.203125 -11.65625 C 86.742188 -11.65625 85.515625 -10.425781 85.515625 -7.96875 L 85.515625 -3.6875 C 85.515625 -1.226562 84.28125 0 81.8125 0 L 25.078125 0 C 22.609375 0 21.375 -1.226562 21.375 -3.6875 Z M 21.375 -3.6875 "/></g></g></g><g fill="#ffffff" fill-opacity="1"><g transform="translate(342.251651, 237.099929)"><g><path d="M 36.921875 -3.6875 L 36.921875 -7.96875 C 36.921875 -10.425781 35.691406 -11.65625 33.234375 -11.65625 L 28.953125 -11.65625 C 26.492188 -11.65625 25.265625 -12.890625 25.265625 -15.359375 L 25.265625 -19.625 C 25.265625 -22.09375 24.035156 -23.328125 21.578125 -23.328125 L 17.296875 -23.328125 C 14.835938 -23.328125 13.609375 -24.554688 13.609375 -27.015625 L 13.609375 -109.03125 C 13.609375 -111.488281 14.835938 -112.71875 17.296875 -112.71875 L 21.578125 -112.71875 C 24.035156 -112.71875 25.265625 -113.945312 25.265625 -116.40625 L 25.265625 -120.6875 C 25.265625 -123.144531 26.492188 -124.375 28.953125 -124.375 L 33.234375 -124.375 C 35.691406 -124.375 36.921875 -125.609375 36.921875 -128.078125 L 36.921875 -132.34375 C 36.921875 -134.8125 38.15625 -136.046875 40.625 -136.046875 L 114.859375 -136.046875 C 117.316406 -136.046875 118.546875 -134.8125 118.546875 -132.34375 L 118.546875 -128.078125 C 118.546875 -125.609375 119.78125 -124.375 122.25 -124.375 L 126.515625 -124.375 C 128.972656 -124.375 130.203125 -123.144531 130.203125 -120.6875 L 130.203125 -116.40625 C 130.203125 -113.945312 131.4375 -112.71875 133.90625 -112.71875 L 138.171875 -112.71875 C 140.640625 -112.71875 141.875 -111.488281 141.875 -109.03125 L 141.875 -87.65625 C 141.875 -85.1875 140.640625 -83.953125 138.171875 -83.953125 L 93.09375 -83.953125 C 90.625 -83.953125 89.390625 -85.1875 89.390625 -87.65625 L 89.390625 -120.6875 C 89.390625 -123.144531 88.160156 -124.375 85.703125 -124.375 L 81.4375 -124.375 C 78.96875 -124.375 77.734375 -123.144531 77.734375 -120.6875 L 77.734375 -116.40625 C 77.734375 -113.945312 76.503906 -112.71875 74.046875 -112.71875 L 69.765625 -112.71875 C 67.304688 -112.71875 66.078125 -111.488281 66.078125 -109.03125 L 66.078125 -15.359375 C 66.078125 -12.890625 67.304688 -11.65625 69.765625 -11.65625 L 74.046875 -11.65625 C 76.503906 -11.65625 77.734375 -12.890625 77.734375 -15.359375 L 77.734375 -19.625 C 77.734375 -22.09375 78.96875 -23.328125 81.4375 -23.328125 L 85.703125 -23.328125 C 88.160156 -23.328125 89.390625 -24.554688 89.390625 -27.015625 L 89.390625 -42.953125 C 89.390625 -45.410156 90.625 -46.640625 93.09375 -46.640625 L 138.171875 -46.640625 C 140.640625 -46.640625 141.875 -45.410156 141.875 -42.953125 L 141.875 -27.015625 C 141.875 -24.554688 140.640625 -23.328125 138.171875 -23.328125 L 133.90625 -23.328125 C 131.4375 -23.328125 130.203125 -22.09375 130.203125 -19.625 L 130.203125 -15.359375 C 130.203125 -12.890625 128.972656 -11.65625 126.515625 -11.65625 L 122.25 -11.65625 C 119.78125 -11.65625 118.546875 -10.425781 118.546875 -7.96875 L 118.546875 -3.6875 C 118.546875 -1.226562 117.316406 0 114.859375 0 L 40.625 0 C 38.15625 0 36.921875 -1.226562 36.921875 -3.6875 Z M 36.921875 -3.6875 "/></g></g></g></g></g><g clip-path="url(#37f71d8d36)"><g transform="matrix(1, 0, 0, 1, 758, 652)"><g clip-path="url(#5db3d22266)"><g clip-path="url(#cf3f00f2f8)"><path fill="#ffde59" d="M 0.84375 0.914062 L 517.660156 0.914062 L 517.660156 215.347656 L 0.84375 215.347656 Z M 0.84375 0.914062 " fill-opacity="1" fill-rule="nonzero"/></g></g></g></g><g fill="#00a1ff" fill-opacity="1"><g transform="translate(789.790696, 828.355973)"><g><path d="M 31.09375 -135.84375 C 33.8125 -135.84375 36.53125 -135.773438 39.25 -135.640625 C 41.976562 -135.515625 44.703125 -135.453125 47.421875 -135.453125 L 62.390625 -135.453125 C 62.773438 -135.453125 63.160156 -135.453125 63.546875 -135.453125 C 63.941406 -135.453125 64.265625 -135.320312 64.515625 -135.0625 C 65.171875 -134.15625 65.53125 -133.148438 65.59375 -132.046875 C 65.65625 -130.953125 65.75 -129.882812 65.875 -128.84375 C 66.132812 -123.28125 65.941406 -117.644531 65.296875 -111.9375 C 65.171875 -110 65.203125 -108.054688 65.390625 -106.109375 C 65.585938 -104.171875 65.75 -102.226562 65.875 -100.28125 C 65.875 -99.757812 65.90625 -99.238281 65.96875 -98.71875 C 66.039062 -98.207031 66.078125 -97.691406 66.078125 -97.171875 C 66.078125 -94.453125 66.109375 -91.765625 66.171875 -89.109375 C 66.234375 -86.453125 66.332031 -83.765625 66.46875 -81.046875 C 66.46875 -80.523438 66.46875 -79.941406 66.46875 -79.296875 C 66.46875 -78.648438 66.398438 -78 66.265625 -77.34375 C 67.953125 -77.601562 69.378906 -77.632812 70.546875 -77.4375 C 71.710938 -77.25 73.140625 -77.21875 74.828125 -77.34375 L 83.171875 -77.34375 C 84.859375 -77.476562 86.546875 -77.609375 88.234375 -77.734375 C 89.921875 -77.867188 91.601562 -78 93.28125 -78.125 C 93.539062 -78.125 93.863281 -78.09375 94.25 -78.03125 C 94.644531 -77.96875 95.035156 -77.9375 95.421875 -77.9375 C 96.066406 -87.394531 96.226562 -96.785156 95.90625 -106.109375 C 95.582031 -115.441406 95.550781 -124.835938 95.8125 -134.296875 C 98.40625 -135.066406 100.898438 -135.222656 103.296875 -134.765625 C 105.691406 -134.316406 108.117188 -134.222656 110.578125 -134.484375 C 112.390625 -134.742188 114.265625 -134.90625 116.203125 -134.96875 C 118.148438 -135.03125 120.097656 -135.128906 122.046875 -135.265625 C 123.734375 -135.523438 125.414062 -135.585938 127.09375 -135.453125 C 128.78125 -135.328125 130.46875 -135.328125 132.15625 -135.453125 C 133.96875 -135.585938 135.679688 -135.585938 137.296875 -135.453125 C 138.921875 -135.328125 140.578125 -135.394531 142.265625 -135.65625 C 144.460938 -136.039062 146.535156 -135.585938 148.484375 -134.296875 C 148.742188 -132.867188 148.773438 -131.410156 148.578125 -129.921875 C 148.378906 -128.429688 148.347656 -126.972656 148.484375 -125.546875 C 148.742188 -122.691406 148.707031 -119.773438 148.375 -116.796875 C 148.050781 -113.816406 148.019531 -110.835938 148.28125 -107.859375 C 148.675781 -103.453125 148.773438 -99.046875 148.578125 -94.640625 C 148.378906 -90.234375 148.410156 -85.765625 148.671875 -81.234375 C 148.804688 -79.035156 148.804688 -76.832031 148.671875 -74.625 C 148.546875 -72.425781 148.414062 -70.222656 148.28125 -68.015625 C 148.28125 -66.335938 148.441406 -64.71875 148.765625 -63.15625 C 149.085938 -61.601562 149.1875 -59.984375 149.0625 -58.296875 C 149.0625 -54.285156 149.03125 -50.335938 148.96875 -46.453125 C 148.90625 -42.566406 148.804688 -38.613281 148.671875 -34.59375 C 148.546875 -31.738281 148.484375 -28.914062 148.484375 -26.125 C 148.484375 -23.34375 148.414062 -20.53125 148.28125 -17.6875 C 148.28125 -15.226562 148.3125 -12.832031 148.375 -10.5 C 148.445312 -8.164062 148.613281 -5.765625 148.875 -3.296875 C 149 -2.910156 148.929688 -2.457031 148.671875 -1.9375 C 148.410156 -1.425781 148.21875 -0.910156 148.09375 -0.390625 C 146.40625 -0.253906 144.785156 -0.15625 143.234375 -0.09375 C 141.679688 -0.03125 140.125 -0.0625 138.5625 -0.1875 C 136.226562 -0.320312 133.894531 -0.257812 131.5625 0 C 129.238281 0.257812 126.910156 0.257812 124.578125 0 C 121.984375 -0.257812 119.328125 -0.320312 116.609375 -0.1875 C 113.890625 -0.0625 111.164062 0 108.4375 0 C 106.882812 -0.125 105.296875 -0.21875 103.671875 -0.28125 C 102.054688 -0.351562 100.472656 -0.257812 98.921875 0 C 97.234375 0.519531 96.195312 -0.453125 95.8125 -2.921875 C 95.550781 -5.640625 95.515625 -8.390625 95.703125 -11.171875 C 95.898438 -13.960938 95.9375 -16.78125 95.8125 -19.625 C 95.675781 -21.832031 95.671875 -24.097656 95.796875 -26.421875 C 95.929688 -28.753906 96.066406 -31.023438 96.203125 -33.234375 C 96.328125 -36.335938 96.390625 -39.378906 96.390625 -42.359375 C 96.390625 -45.347656 96.195312 -48.332031 95.8125 -51.3125 C 95.675781 -52.082031 95.640625 -52.859375 95.703125 -53.640625 C 95.773438 -54.421875 95.8125 -55.132812 95.8125 -55.78125 C 95.675781 -55.90625 94.601562 -55.96875 92.59375 -55.96875 C 90.59375 -55.96875 88.132812 -55.96875 85.21875 -55.96875 C 82.300781 -55.96875 79.414062 -55.9375 76.5625 -55.875 C 73.71875 -55.8125 71.257812 -55.742188 69.1875 -55.671875 C 67.113281 -55.609375 65.945312 -55.515625 65.6875 -55.390625 C 65.5625 -46.578125 65.429688 -37.734375 65.296875 -28.859375 C 65.171875 -19.984375 65.429688 -11.007812 66.078125 -1.9375 C 65.941406 -1.8125 65.8125 -1.488281 65.6875 -0.96875 C 65.5625 -0.445312 65.171875 -0.1875 64.515625 -0.1875 C 56.484375 -0.445312 48.453125 -0.414062 40.421875 -0.09375 C 32.390625 0.226562 24.359375 0.453125 16.328125 0.578125 C 15.546875 0.578125 14.894531 0.707031 14.375 0.96875 C 13.082031 0.320312 12.4375 -0.320312 12.4375 -0.96875 C 12.4375 -1.613281 12.375 -2.71875 12.25 -4.28125 C 12.113281 -6.863281 12.175781 -9.484375 12.4375 -12.140625 C 12.695312 -14.796875 12.695312 -17.488281 12.4375 -20.21875 C 12.3125 -22.539062 12.3125 -24.867188 12.4375 -27.203125 C 12.695312 -28.367188 12.757812 -29.566406 12.625 -30.796875 C 12.5 -32.035156 12.4375 -33.238281 12.4375 -34.40625 C 12.3125 -37.769531 12.28125 -41.164062 12.34375 -44.59375 C 12.40625 -48.03125 12.304688 -51.4375 12.046875 -54.8125 C 11.921875 -58.695312 11.984375 -62.546875 12.234375 -66.359375 C 12.492188 -70.179688 12.429688 -73.972656 12.046875 -77.734375 C 11.921875 -80.203125 11.953125 -82.597656 12.140625 -84.921875 C 12.335938 -87.253906 12.242188 -89.65625 11.859375 -92.125 C 11.859375 -97.820312 11.820312 -102.191406 11.75 -105.234375 C 11.6875 -108.273438 11.722656 -111.03125 11.859375 -113.5 C 12.117188 -116.09375 12.148438 -118.585938 11.953125 -120.984375 C 11.753906 -123.378906 11.722656 -125.804688 11.859375 -128.265625 C 11.859375 -129.046875 11.820312 -130.34375 11.75 -132.15625 C 11.6875 -133.96875 12.175781 -134.875 13.21875 -134.875 C 16.195312 -135 19.175781 -135.191406 22.15625 -135.453125 C 25.132812 -135.710938 28.113281 -135.84375 31.09375 -135.84375 Z M 31.09375 -135.84375 "/></g></g></g><g fill="#00a1ff" fill-opacity="1"><g transform="translate(950.898257, 828.355973)"><g><path d="M 125.359375 -102.21875 C 126.390625 -102.476562 127.453125 -102.539062 128.546875 -102.40625 C 129.648438 -102.28125 130.722656 -101.632812 131.765625 -100.46875 C 131.503906 -84.40625 131.566406 -67.882812 131.953125 -50.90625 C 132.347656 -33.9375 132.800781 -17.160156 133.3125 -0.578125 C 128.519531 -0.191406 123.5 0 118.25 0 C 113.007812 0 108.117188 0.320312 103.578125 0.96875 C 101.378906 -1.226562 99.726562 -3.585938 98.625 -6.109375 C 97.53125 -8.640625 95.617188 -10.617188 92.890625 -12.046875 C 91.335938 -10.492188 90.078125 -9.265625 89.109375 -8.359375 C 88.140625 -7.453125 86.679688 -6.414062 84.734375 -5.25 C 80.585938 -2.65625 76.503906 -0.644531 72.484375 0.78125 C 68.472656 2.207031 63.941406 2.660156 58.890625 2.140625 C 56.421875 1.878906 53.988281 1.679688 51.59375 1.546875 C 49.195312 1.421875 46.769531 1.226562 44.3125 0.96875 C 39.125 0.320312 34.425781 -1.226562 30.21875 -3.6875 C 26.007812 -6.15625 22.15625 -9.332031 18.65625 -13.21875 C 16.320312 -15.8125 14.734375 -18.53125 13.890625 -21.375 C 13.046875 -24.226562 12.5 -27.144531 12.25 -30.125 C 12.113281 -33.488281 12.015625 -36.851562 11.953125 -40.21875 C 11.890625 -43.59375 11.789062 -46.898438 11.65625 -50.140625 C 11.53125 -57.140625 11.628906 -64.101562 11.953125 -71.03125 C 12.273438 -77.96875 12.304688 -84.929688 12.046875 -91.921875 C 12.046875 -93.347656 12.078125 -94.835938 12.140625 -96.390625 C 12.210938 -97.953125 12.503906 -99.441406 13.015625 -100.859375 C 13.671875 -100.992188 15.519531 -101.125 18.5625 -101.25 C 21.601562 -101.382812 25.195312 -101.453125 29.34375 -101.453125 C 33.488281 -101.453125 37.601562 -101.382812 41.6875 -101.25 C 45.769531 -101.125 49.300781 -100.992188 52.28125 -100.859375 C 55.257812 -100.734375 57.007812 -100.539062 57.53125 -100.28125 C 57.789062 -98.59375 57.921875 -96.773438 57.921875 -94.828125 C 57.921875 -92.890625 57.921875 -91.015625 57.921875 -89.203125 C 57.921875 -81.691406 57.953125 -74.175781 58.015625 -66.65625 C 58.078125 -59.144531 58.046875 -51.566406 57.921875 -43.921875 C 57.921875 -40.941406 58.273438 -38.09375 58.984375 -35.375 C 59.691406 -32.65625 60.890625 -30 62.578125 -27.40625 C 64.003906 -25.195312 66.269531 -23.378906 69.375 -21.953125 C 72.488281 -20.535156 75.535156 -20.664062 78.515625 -22.34375 C 81.617188 -24.164062 83.625 -26.046875 84.53125 -27.984375 C 85.445312 -29.929688 85.773438 -32.78125 85.515625 -36.53125 C 85.378906 -40.8125 85.34375 -45.378906 85.40625 -50.234375 C 85.476562 -55.097656 85.644531 -59.664062 85.90625 -63.9375 C 86.15625 -67.957031 86.21875 -71.941406 86.09375 -75.890625 C 85.96875 -79.835938 85.773438 -83.820312 85.515625 -87.84375 C 85.378906 -89.53125 85.28125 -91.148438 85.21875 -92.703125 C 85.15625 -94.253906 85.1875 -95.875 85.3125 -97.5625 C 85.3125 -98.988281 85.535156 -99.957031 85.984375 -100.46875 C 86.441406 -100.988281 87.515625 -101.25 89.203125 -101.25 C 93.992188 -101.382812 98.785156 -101.484375 103.578125 -101.546875 C 108.378906 -101.609375 113.175781 -101.640625 117.96875 -101.640625 C 119.132812 -101.773438 120.332031 -101.875 121.5625 -101.9375 C 122.789062 -102 124.054688 -102.09375 125.359375 -102.21875 Z M 125.359375 -102.21875 "/></g></g></g><g fill="#00a1ff" fill-opacity="1"><g transform="translate(1096.264317, 828.355973)"><g><path d="M 51.703125 -136.8125 C 52.609375 -136.8125 53.445312 -136.84375 54.21875 -136.90625 C 55 -136.976562 55.773438 -136.816406 56.546875 -136.421875 C 57.460938 -135.773438 57.953125 -135 58.015625 -134.09375 C 58.078125 -133.1875 58.109375 -132.21875 58.109375 -131.1875 L 58.109375 -95.421875 C 58.109375 -95.160156 58.109375 -94.578125 58.109375 -93.671875 C 58.109375 -92.765625 58.171875 -92.117188 58.296875 -91.734375 C 59.203125 -92.765625 60.109375 -93.503906 61.015625 -93.953125 C 61.929688 -94.410156 62.644531 -95.03125 63.15625 -95.8125 C 63.8125 -96.457031 64.460938 -96.972656 65.109375 -97.359375 C 65.753906 -97.753906 66.46875 -98.082031 67.25 -98.34375 C 71.394531 -100.15625 75.570312 -101.738281 79.78125 -103.09375 C 83.988281 -104.457031 88.296875 -105.007812 92.703125 -104.75 C 97.234375 -104.625 101.632812 -103.941406 105.90625 -102.703125 C 110.1875 -101.472656 114.207031 -99.5 117.96875 -96.78125 C 120.945312 -94.707031 123.601562 -92.40625 125.9375 -89.875 C 128.269531 -87.351562 130.472656 -84.664062 132.546875 -81.8125 C 134.359375 -79.351562 135.71875 -76.796875 136.625 -74.140625 C 137.53125 -71.484375 138.113281 -68.726562 138.375 -65.875 C 139.019531 -61.21875 139.34375 -56.585938 139.34375 -51.984375 C 139.34375 -47.390625 138.828125 -42.820312 137.796875 -38.28125 C 136.878906 -33.75 135.578125 -29.3125 133.890625 -24.96875 C 132.210938 -20.632812 129.945312 -16.585938 127.09375 -12.828125 C 123.601562 -8.160156 119.523438 -4.53125 114.859375 -1.9375 C 110.191406 0.644531 104.878906 2.066406 98.921875 2.328125 C 96.972656 2.460938 94.992188 2.59375 92.984375 2.71875 C 90.984375 2.851562 89.007812 2.851562 87.0625 2.71875 C 82.914062 2.457031 78.960938 1.582031 75.203125 0.09375 C 71.453125 -1.394531 67.765625 -3.046875 64.140625 -4.859375 C 62.453125 -5.765625 60.796875 -6.703125 59.171875 -7.671875 C 57.554688 -8.648438 55.84375 -9.65625 54.03125 -10.6875 C 53.125 -9 52.28125 -7.21875 51.5 -5.34375 C 50.71875 -3.46875 49.875 -1.6875 48.96875 0 C 48.457031 0.125 46.96875 0.21875 44.5 0.28125 C 42.039062 0.351562 39.09375 0.390625 35.65625 0.390625 C 32.226562 0.390625 28.828125 0.390625 25.453125 0.390625 C 22.085938 0.390625 19.207031 0.351562 16.8125 0.28125 C 14.414062 0.21875 13.019531 0.125 12.625 0 C 12.113281 -22.675781 11.890625 -45.378906 11.953125 -68.109375 C 12.015625 -90.847656 11.914062 -113.425781 11.65625 -135.84375 C 12.050781 -136.488281 12.601562 -136.8125 13.3125 -136.8125 C 14.019531 -136.8125 14.632812 -136.8125 15.15625 -136.8125 C 20.207031 -136.8125 25.226562 -136.875 30.21875 -137 C 35.207031 -137.132812 40.226562 -136.878906 45.28125 -136.234375 C 46.320312 -136.109375 47.390625 -136.140625 48.484375 -136.328125 C 49.585938 -136.523438 50.660156 -136.6875 51.703125 -136.8125 Z M 69.765625 -81.234375 C 65.617188 -79.421875 62.054688 -76.632812 59.078125 -72.875 C 58.691406 -65.226562 58.460938 -57.550781 58.390625 -49.84375 C 58.328125 -42.132812 58.492188 -34.457031 58.890625 -26.8125 C 59.398438 -26.300781 59.847656 -25.785156 60.234375 -25.265625 C 60.628906 -24.742188 61.019531 -24.289062 61.40625 -23.90625 C 65.945312 -20.019531 70.421875 -18.171875 74.828125 -18.359375 C 79.234375 -18.554688 83.050781 -21.3125 86.28125 -26.625 C 87.707031 -28.820312 88.875 -31.1875 89.78125 -33.71875 C 90.6875 -36.25 91.53125 -38.742188 92.3125 -41.203125 C 93.21875 -44.179688 93.601562 -47.222656 93.46875 -50.328125 C 93.34375 -53.441406 93.347656 -56.550781 93.484375 -59.65625 C 93.484375 -64.457031 92.507812 -68.863281 90.5625 -72.875 C 88.363281 -77.664062 85.414062 -80.707031 81.71875 -82 C 78.03125 -83.300781 74.046875 -83.046875 69.765625 -81.234375 Z M 69.765625 -81.234375 "/></g></g></g></svg>